<?xml version="1.0" encoding="UTF-8" standalone="no"?>
<!-- Created with Inkscape (http://www.inkscape.org/) -->

<svg
   width="210mm"
   height="297mm"
   viewBox="0 0 210 297"
   version="1.1"
   id="svg1"
   xml:space="preserve"
   inkscape:version="1.4.2 (f4327f4, 2025-05-13)"
   sodipodi:docname="Bones.svg"
   xmlns:inkscape="http://www.inkscape.org/namespaces/inkscape"
   xmlns:sodipodi="http://sodipodi.sourceforge.net/DTD/sodipodi-0.dtd"
   xmlns="http://www.w3.org/2000/svg"
   xmlns:svg="http://www.w3.org/2000/svg"><sodipodi:namedview
     id="namedview1"
     pagecolor="#ffffff"
     bordercolor="#000000"
     borderopacity="0.25"
     inkscape:showpageshadow="2"
     inkscape:pageopacity="0.0"
     inkscape:pagecheckerboard="0"
     inkscape:deskcolor="#d1d1d1"
     inkscape:document-units="mm"
     inkscape:zoom="1.0396254"
     inkscape:cx="574.24529"
     inkscape:cy="638.21063"
     inkscape:window-width="1920"
     inkscape:window-height="1009"
     inkscape:window-x="3432"
     inkscape:window-y="-8"
     inkscape:window-maximized="1"
     inkscape:current-layer="layer1" /><defs
     id="defs1" /><g
     inkscape:label="Layer 1"
     inkscape:groupmode="layer"
     id="layer1"><g
       id="g1"
       transform="translate(-3.8174779,-22.395886)"><path
         style="fill:#fefefe"
         d="M -95.946213,143.86164 V 8.3949795 h 203.199993 203.2 V 143.86164 279.3283 h -203.2 -203.199993 z M 121.2767,251.68268 c 3.1287,-0.21202 6.70057,-0.50987 7.9375,-0.66188 11.75623,-1.44483 23.87163,-4.38005 32.86029,-7.96112 9.44585,-3.76321 11.2324,-6.10495 9.30958,-12.20262 -0.98921,-3.137 -3.47972,-8.85504 -6.23743,-14.32072 -1.30869,-2.59375 -2.33862,-4.75269 -2.28874,-4.79763 0.0499,-0.0449 0.98364,-0.52843 2.07505,-1.07443 7.38307,-3.6935 15.80131,-9.83607 21.44123,-15.64509 8.01761,-8.25802 12.68667,-16.58198 14.7296,-26.25985 0.61444,-2.91076 0.70602,-3.97254 0.72118,-8.36124 0.031,-8.98825 -1.96771,-18.52902 -7.02374,-33.52682 -1.66866,-4.94977 -1.822,-5.57803 -1.5821,-6.48229 0.52425,-1.97613 2.40036,-12.72361 2.92288,-16.74402 0.82732,-6.36557 1.05197,-9.363122 1.33964,-17.875112 0.5062,-14.977906 -0.41393,-28.297303 -2.53953,-36.761339 -1.20547,-4.800118 -2.81479,-7.389639 -5.4388,-8.751472 -1.14624,-0.594888 -4.29112,-0.798488 -6.0003,-0.388462 -1.8976,0.455228 -4.85855,2.504847 -8.14176,5.63588 -5.3724,5.123369 -8.74653,9.035573 -19.81404,22.973743 -6.88975,8.6768 -12.77623,15.553938 -14.08996,16.461211 -1.28178,0.885211 -2.78387,1.50764 -3.63834,1.50764 -0.36999,0 -2.66576,-0.351507 -5.10173,-0.781127 -6.09753,-1.075395 -14.93807,-1.830296 -23.7436,-2.027486 C 98.442896,83.402624 89.156042,84.089763 81.192326,85.693996 74.601555,87.02166 73.98566,86.754822 68.26404,80.092793 65.617866,77.011693 60.071852,70.142048 54.596835,63.163727 46.846533,53.285383 39.647716,45.486695 35.35877,42.32257 c -2.673254,-1.972165 -4.58954,-2.730939 -6.953169,-2.753179 -3.098782,-0.02916 -4.804469,0.607964 -6.422572,2.39901 -1.975232,2.186346 -3.144363,5.509663 -4.255961,12.097803 -1.297471,7.68975 -1.605975,12.284756 -1.605576,23.914188 5.29e-4,15.439886 0.963149,25.612658 3.677583,38.863988 0.369257,1.80264 0.671377,3.65521 0.671377,4.11683 0,0.46161 -0.643182,2.68066 -1.429292,4.93121 -2.730057,7.81586 -5.347459,17.69649 -6.547352,24.71609 -0.783157,4.58162 -0.853449,13.03423 -0.138617,16.66875 1.731607,8.80427 5.465891,16.40176 11.777521,23.96167 5.567563,6.66868 14.427168,13.67392 23.214228,18.35535 l 3.445741,1.83577 -1.518442,2.92673 c -3.25509,6.27404 -7.224131,15.49455 -7.890743,18.33104 -0.410203,1.74545 -0.176273,3.14913 0.774735,4.64871 0.974355,1.5364 2.026902,2.31218 5.056121,3.72663 11.390746,5.31872 31.352645,9.60898 49.852974,10.71454 6.100544,0.36456 18.123974,0.31737 24.209374,-0.095 z m -8.26823,-68.83794 c 0.1819,-0.0734 0.47956,-0.0734 0.66146,0 0.1819,0.0734 0.0331,0.13345 -0.33073,0.13345 -0.3638,0 -0.51263,-0.0601 -0.33073,-0.13345 z m 30.7082,-19.05551 c 0.191,-0.0764 0.4192,-0.067 0.50712,0.0209 0.0879,0.0879 -0.0684,0.15045 -0.34726,0.13896 -0.30823,-0.0127 -0.37092,-0.0754 -0.15986,-0.15985 z m -94.42666,-6.10311 -0.641433,-0.72761 0.727604,0.64144 c 0.400182,0.35278 0.727604,0.68021 0.727604,0.7276 0,0.20751 -0.214259,0.0386 -0.813775,-0.64143 z m 34.965913,-9.4809 c 0.0127,-0.30823 0.07539,-0.37092 0.159852,-0.15986 0.07643,0.191 0.06703,0.4192 -0.02089,0.50712 -0.08792,0.0879 -0.150453,-0.0684 -0.138964,-0.34726 z M 152.783,146.8823 c 0.0127,-0.30823 0.0754,-0.37092 0.15986,-0.15985 0.0764,0.19099 0.067,0.4192 -0.0209,0.50711 -0.0879,0.0879 -0.15045,-0.0683 -0.13897,-0.34726 z m 0.0458,-1.56545 c 0.003,-0.58209 0.0571,-0.78906 0.12041,-0.45994 0.0633,0.32912 0.0609,0.80537 -0.005,1.05833 -0.0662,0.25297 -0.11801,-0.0163 -0.11507,-0.59839 z m -24.91667,0.24253 c 0.0127,-0.30822 0.0754,-0.37092 0.15985,-0.15985 0.0764,0.191 0.067,0.4192 -0.0209,0.50712 -0.0879,0.0879 -0.15046,-0.0684 -0.13897,-0.34727 z M 43.51009,145.2948 c 0.0127,-0.30823 0.07539,-0.37092 0.159852,-0.15985 0.07643,0.19099 0.06703,0.4192 -0.02089,0.50711 -0.08792,0.0879 -0.150453,-0.0683 -0.138964,-0.34726 z m 40.063486,-0.11024 c -0.431379,-0.18537 -0.446488,-0.23083 -0.08176,-0.24599 0.246074,-0.0102 0.520991,0.10046 0.610928,0.24599 0.18803,0.30423 0.178835,0.30423 -0.529168,0 z m -1.504817,-0.44533 c 0.190996,-0.0764 0.419199,-0.067 0.507118,0.0209 0.08792,0.0879 -0.06835,0.15045 -0.347266,0.13896 -0.308225,-0.0127 -0.370919,-0.0754 -0.159852,-0.15985 z m -2.910417,-0.52916 c 0.190996,-0.0764 0.419199,-0.067 0.507118,0.0209 0.08792,0.0879 -0.06835,0.15046 -0.347266,0.13897 -0.308224,-0.0127 -0.370919,-0.0754 -0.159852,-0.15985 z m 53.710418,0 c 0.19099,-0.0764 0.4192,-0.067 0.50712,0.0209 0.0879,0.0879 -0.0683,0.15046 -0.34727,0.13897 -0.30822,-0.0127 -0.37092,-0.0754 -0.15985,-0.15985 z m 3.175,-0.52917 c 0.19099,-0.0764 0.4192,-0.067 0.50712,0.0209 0.0879,0.0879 -0.0684,0.15045 -0.34727,0.13896 -0.30822,-0.0127 -0.37092,-0.0754 -0.15985,-0.15985 z m 1.5875,-0.26458 c 0.19099,-0.0764 0.4192,-0.067 0.50712,0.0209 0.0879,0.0879 -0.0684,0.15046 -0.34727,0.13897 -0.30822,-0.0127 -0.37092,-0.0754 -0.15985,-0.15985 z m -94.317687,-1.93593 c 0,-1.09141 0.0467,-1.53789 0.103786,-0.99219 0.05708,0.5457 0.05708,1.43867 0,1.98438 -0.05708,0.5457 -0.103786,0.0992 -0.103786,-0.99219 z m 126.443257,-0.26458 c 0,-0.50933 0.0545,-0.71769 0.121,-0.46302 0.0666,0.25466 0.0666,0.67138 0,0.92604 -0.0665,0.25466 -0.121,0.0463 -0.121,-0.46302 z m -17.52388,-0.28936 c 0,-0.13189 0.23813,-0.23981 0.52917,-0.23981 0.29104,0 0.52916,0.0456 0.52916,0.10143 0,0.0558 -0.23812,0.16371 -0.52916,0.23982 -0.29104,0.0761 -0.52917,0.0305 -0.52917,-0.10144 z M 43.493253,138.23924 c -0.0027,-0.31107 0.191306,-0.45616 0.591261,-0.44213 0.397786,0.014 0.463628,0.071 0.198438,0.17197 -0.218281,0.0831 -0.484349,0.28205 -0.591261,0.44213 -0.119901,0.17953 -0.195939,0.11363 -0.198438,-0.17197 z m 3.385923,0.14999 c 0.190996,-0.0764 0.419199,-0.067 0.507118,0.0209 0.08792,0.0879 -0.06835,0.15045 -0.347266,0.13896 -0.308224,-0.0127 -0.370919,-0.0754 -0.159852,-0.15985 z m -1.5875,-0.26458 c 0.190996,-0.0764 0.419199,-0.067 0.507118,0.0209 0.08792,0.0879 -0.06835,0.15045 -0.347266,0.13896 -0.308224,-0.0127 -0.370919,-0.0754 -0.159852,-0.15985 z m 123.295834,-0.26458 c 0.19099,-0.0764 0.4192,-0.067 0.50712,0.0209 0.0879,0.0879 -0.0684,0.15046 -0.34727,0.13897 -0.30822,-0.0127 -0.37092,-0.0754 -0.15985,-0.15985 z"
         id="path4" /><path
         style="fill:#a8be56"
         d="m 100.85417,251.89548 c 0.191,-0.0764 0.4192,-0.067 0.50712,0.0209 0.0879,0.0879 -0.0683,0.15046 -0.34726,0.13897 -0.30823,-0.0127 -0.37092,-0.0754 -0.15986,-0.15985 z m 15.20205,-0.003 c 0.25743,-0.0671 0.61461,-0.0627 0.79375,0.01 0.17913,0.0725 -0.0315,0.12736 -0.46806,0.12197 -0.43656,-0.005 -0.58313,-0.0647 -0.32569,-0.13178 z m -23.668712,-0.52655 c 0.190996,-0.0764 0.4192,-0.067 0.507118,0.0209 0.08792,0.0879 -0.06835,0.15045 -0.347265,0.13896 -0.308225,-0.0127 -0.370919,-0.0754 -0.159853,-0.15985 z m 90.007942,-52.57124 c 0,-0.0549 0.20836,-0.2633 0.46302,-0.46302 0.41964,-0.3291 0.429,-0.31975 0.0999,0.0999 -0.34565,0.44073 -0.56292,0.58089 -0.56292,0.36312 z M 25.463786,192.8757 c -0.329107,-0.41964 -0.319749,-0.429 0.0999,-0.0999 0.254662,0.19972 0.463021,0.40808 0.463021,0.46302 0,0.21777 -0.217272,0.0776 -0.562916,-0.36312 z M 110.8313,182.34057 c -0.6641,-0.61547 -0.89899,-1.43727 -0.41082,-1.43727 0.14095,0 0.19128,-0.16938 0.11183,-0.37641 -0.0794,-0.20703 0.093,-0.61383 0.38313,-0.904 0.29017,-0.29016 0.45813,-0.59703 0.37324,-0.68191 -0.0849,-0.0849 0.004,-0.15434 0.19844,-0.15434 0.19403,0 0.28428,-0.0685 0.20057,-0.15221 -0.0837,-0.0837 -0.048,-0.51564 0.0794,-0.95984 0.36694,-1.27943 -0.0382,-1.71279 -1.73244,-1.85329 -1.15283,-0.0956 -1.6375,-0.28267 -2.24816,-0.86772 -0.42816,-0.41021 -0.71616,-0.84668 -0.63998,-0.96993 0.0762,-0.12325 0.005,-0.2241 -0.15732,-0.2241 -0.1627,0 -0.22851,-0.10889 -0.14626,-0.24198 0.0823,-0.13309 0.0221,-0.28448 -0.13374,-0.33642 -0.41456,-0.13819 -0.66705,-2.33201 -0.26839,-2.33201 0.17327,0 0.24145,-0.11906 0.15152,-0.26459 -0.0899,-0.14552 -0.0176,-0.26458 0.16077,-0.26458 0.17836,0 0.25457,-0.0697 0.16935,-0.15494 -0.22121,-0.22121 0.89442,-1.44283 1.16495,-1.27563 0.1236,0.0764 0.22472,0.006 0.22472,-0.15693 0,-0.1627 0.11906,-0.22223 0.26458,-0.13229 0.14552,0.0899 0.26458,0.0304 0.26458,-0.13229 0,-0.1627 0.11907,-0.22223 0.26459,-0.13229 0.14552,0.0899 0.26458,0.0235 0.26458,-0.14754 0,-0.18079 0.2216,-0.25311 0.52917,-0.17268 0.29104,0.0761 0.52916,0.0477 0.52916,-0.0631 0,-0.11079 0.75635,-0.22224 1.68077,-0.24768 1.29872,-0.0357 1.82028,0.0667 2.29455,0.45078 0.58394,0.47284 0.59717,0.55634 0.27218,1.71709 -0.21751,0.77688 -0.26595,1.58434 -0.13335,2.22283 0.11454,0.55152 0.18821,1.09205 0.16372,1.20119 -0.0245,0.10914 0.0816,0.19844 0.23567,0.19844 0.1541,0 0.20661,0.11906 0.11667,0.26458 -0.0899,0.14552 -0.0394,0.26459 0.11222,0.26459 0.15166,0 0.59945,0.62508 0.99509,1.38906 0.57308,1.10661 0.72194,1.7611 0.73207,3.21871 0.009,1.24269 -0.0939,1.86531 -0.31967,1.94083 -0.18281,0.0611 -0.26508,0.22007 -0.18282,0.35316 0.0822,0.13309 0.0164,0.24199 -0.14626,0.24199 -0.1627,0 -0.23207,0.10315 -0.15415,0.22922 0.0779,0.12607 -0.0937,0.44218 -0.38126,0.70247 -0.28761,0.26028 -0.52475,0.36549 -0.52698,0.23379 -0.002,-0.13169 -0.10695,-0.077 -0.23273,0.12151 -0.14282,0.22543 -0.83454,0.38779 -1.84239,0.43244 -1.3817,0.0612 -1.70963,-0.0174 -2.28081,-0.54675 z M 62.147683,163.97864 c -0.08699,-0.14076 -0.510737,-0.18541 -0.941657,-0.0992 -0.463118,0.0926 -0.783491,0.0451 -0.783491,-0.11619 0,-0.15009 -0.238125,-0.21061 -0.529167,-0.1345 -0.291041,0.0761 -0.529166,0.009 -0.529166,-0.14876 0,-0.15793 -0.178594,-0.21861 -0.396875,-0.13485 -0.218282,0.0838 -0.39696,0.0503 -0.397062,-0.0745 -1.03e-4,-0.12471 -0.287519,-0.24327 -0.638704,-0.26348 -0.947751,-0.0545 -4.631465,-1.90026 -5.396931,-2.70414 -0.365923,-0.38429 -0.577238,-0.52011 -0.469589,-0.30183 0.10765,0.21828 -0.04502,0.12376 -0.339263,-0.21004 -0.294244,-0.33381 -0.599536,-0.60317 -0.678426,-0.59859 -0.07889,0.005 -0.935116,-0.76409 -1.902724,-1.70818 -0.967607,-0.94409 -1.653652,-1.72014 -1.524544,-1.72457 0.129109,-0.004 0.02638,-0.1294 -0.228278,-0.27773 -0.254662,-0.14832 -0.463021,-0.44236 -0.463021,-0.65341 0,-0.21105 -0.09339,-0.38373 -0.207537,-0.38373 -0.359027,0 -1.154951,-1.574 -0.957487,-1.8935 0.116639,-0.18873 0.07205,-0.23299 -0.117012,-0.11614 -0.270683,0.16729 -0.439401,-0.31709 -0.336796,-0.96692 0.01723,-0.10914 -0.09476,-0.19844 -0.248866,-0.19844 -0.154109,0 -0.206614,-0.11906 -0.116677,-0.26458 0.08994,-0.14552 0.04735,-0.26458 -0.09463,-0.26458 -0.333936,0 -1.413446,-4.58145 -1.206551,-5.12061 0.0866,-0.22567 0.06068,-0.56483 -0.0576,-0.7537 -0.319378,-0.51 -0.277574,-6.11204 0.04821,-6.46006 0.431163,-0.46059 1.442868,-0.71472 1.442868,-0.36244 0,0.1995 0.271874,0.24372 0.79375,0.1291 0.53431,-0.11736 0.79375,-0.0716 0.79375,0.13995 0,0.20102 0.232549,0.25592 0.645243,0.15234 0.354884,-0.0891 0.715884,-0.0476 0.802223,0.0921 0.08634,0.1397 0.32606,0.18911 0.532712,0.10981 0.206652,-0.0793 0.530261,-0.048 0.719131,0.0695 0.188869,0.11755 0.61129,0.17911 0.938712,0.1368 0.327421,-0.0423 0.595312,0.0529 0.595312,0.21165 0,0.17567 0.258754,0.22361 0.661458,0.12254 0.363802,-0.0913 0.661461,-0.0638 0.661464,0.0611 3e-6,0.12492 0.542718,0.24807 1.206035,0.27366 0.663316,0.0256 1.354118,0.16944 1.535116,0.31966 0.180998,0.15021 0.577345,0.2082 0.880772,0.12885 0.303426,-0.0794 0.624771,-0.026 0.7141,0.11852 0.08933,0.14454 0.386984,0.20407 0.661458,0.1323 0.274473,-0.0718 0.572129,-0.0123 0.661458,0.13229 0.08933,0.14453 0.382673,0.20519 0.651876,0.13479 0.683346,-0.17869 1.444622,0.64627 1.238028,1.3416 -0.410705,1.38232 -0.631228,5.92906 -0.312574,6.44465 0.0971,0.15712 0.205309,0.95019 0.240453,1.76238 0.03514,0.81219 0.139944,1.47677 0.232889,1.47684 0.150526,1.1e-4 0.575265,1.56364 0.610975,2.24908 0.0076,0.14552 0.07332,0.32412 0.146075,0.39688 0.142928,0.14293 1.55007,3.04971 1.633592,3.37457 0.0279,0.10852 0.327733,0.4152 0.666297,0.68151 0.338563,0.26631 0.536508,0.61213 0.439877,0.76849 -0.09663,0.15635 -0.05991,0.21272 0.0816,0.12526 0.14151,-0.0875 0.563828,0.12522 0.938485,0.47262 0.374658,0.34741 0.723758,0.58949 0.775778,0.53797 0.05202,-0.0515 0.573851,-0.006 1.159624,0.10156 0.585773,0.10737 1.181085,0.0982 1.322917,-0.0204 1.110956,-0.92909 1.885967,-1.48428 2.109958,-1.51149 0.145521,-0.0177 0.264583,-0.1608 0.264583,-0.31805 0,-0.15725 0.190409,-0.42514 0.423131,-0.59531 0.232722,-0.17017 0.411316,-0.39484 0.396875,-0.49926 -0.01444,-0.10442 0.155452,-0.40208 0.37754,-0.66146 0.222087,-0.25938 0.411977,-0.53113 0.421976,-0.60389 0.07344,-0.53441 0.775268,-2.11666 0.938868,-2.11666 0.11172,0 0.134595,-0.1786 0.05083,-0.39688 -0.08376,-0.21828 -0.02423,-0.39687 0.132292,-0.39687 0.156523,0 0.216054,-0.1786 0.132292,-0.39688 -0.08376,-0.21828 -0.05026,-0.39749 0.07445,-0.39825 0.12471,-7.5e-4 0.255424,-0.49907 0.290475,-1.10737 0.03505,-0.6083 0.156744,-1.17323 0.27043,-1.2554 0.113685,-0.0822 0.232995,-1.63768 0.265133,-3.45669 0.03214,-1.81901 0.05927,-3.35163 0.0603,-3.40583 10e-4,-0.0542 0.150695,0.0201 0.332596,0.16518 0.181901,0.14504 0.614218,0.21752 0.960704,0.16105 0.346486,-0.0565 0.777879,0.0201 0.958652,0.17012 0.180772,0.15003 0.522362,0.19845 0.759088,0.10761 0.236725,-0.0908 0.43041,-0.0363 0.43041,0.12112 0,0.17697 0.30306,0.22566 0.79375,0.12752 0.491683,-0.0983 0.79375,-0.0495 0.79375,0.12826 0,0.15785 0.386953,0.28596 0.859896,0.28469 1.781483,-0.005 2.050521,0.0372 2.050521,0.31985 0,0.17753 0.256935,0.22581 0.661458,0.12428 0.414722,-0.10409 0.661458,-0.0539 0.661458,0.13447 0,0.17029 0.229435,0.24048 0.529532,0.16201 0.291242,-0.0762 0.462809,-0.0305 0.38126,0.10143 -0.08155,0.13195 -0.02865,0.23991 0.117547,0.23991 0.36844,0 0.186573,5.37176 -0.186072,5.49598 -0.155855,0.052 -0.217792,0.26536 -0.137637,0.47424 0.08015,0.20888 0.0069,0.37978 -0.162771,0.37978 -0.169678,0 -0.240005,0.11083 -0.156283,0.2463 0.08372,0.13547 0.02928,0.32229 -0.120992,0.41516 -0.150269,0.0929 -0.204715,0.27969 -0.120993,0.41515 0.08372,0.13547 0.01911,0.24631 -0.143591,0.24631 -0.162697,0 -0.222228,0.11906 -0.132291,0.26458 0.08994,0.14552 0.03743,0.26458 -0.116677,0.26458 -0.154109,0 -0.266099,0.0893 -0.248866,0.19844 0.08039,0.50914 -0.08477,0.84233 -0.758937,1.53097 -0.400182,0.40878 -0.54901,0.65431 -0.330729,0.54562 0.218281,-0.10868 0.15875,-0.002 -0.132291,0.23757 -0.291042,0.23934 -0.502391,0.53686 -0.469665,0.66115 0.08947,0.33978 -3.911424,3.99167 -4.186735,3.82152 -0.131116,-0.081 -0.238392,-0.0142 -0.238392,0.14848 0,0.1627 -0.119063,0.22223 -0.264583,0.13229 -0.145521,-0.0899 -0.264584,-0.0391 -0.264584,0.11287 0,0.35048 -3.116696,1.93877 -3.4275,1.74668 -0.127308,-0.0787 -0.273115,-0.0181 -0.324015,0.13458 -0.0509,0.1527 -0.388491,0.31629 -0.750202,0.36354 -0.361712,0.0472 -0.836251,0.158 -1.054533,0.24612 -1.648846,0.66566 -7.983848,1.00608 -8.329018,0.44759 z m 82.147767,-0.032 c 0,-0.17509 -0.2936,-0.21883 -0.76856,-0.11451 -0.44593,0.0979 -0.84235,0.0494 -0.94433,-0.11559 -0.0967,-0.15641 -0.27483,-0.22316 -0.39593,-0.14832 -0.31983,0.19767 -3.71201,-0.89565 -3.71201,-1.1964 0,-0.13967 -0.0893,-0.23036 -0.19844,-0.20153 -0.3722,0.0983 -1.38906,-0.35191 -1.38906,-0.61503 0,-0.14431 -0.11991,-0.18827 -0.26645,-0.0977 -0.14655,0.0906 -0.33762,-0.0208 -0.4246,-0.24744 -0.087,-0.22667 -0.26558,-0.34574 -0.39688,-0.26459 -0.1313,0.0812 -0.30989,-0.0379 -0.39687,-0.26458 -0.087,-0.22667 -0.25226,-0.35396 -0.36729,-0.28287 -0.11502,0.0711 -0.2774,-0.0487 -0.36084,-0.26611 -0.0834,-0.21744 -0.30926,-0.39535 -0.50181,-0.39535 -0.19255,0 -0.87592,-0.53578 -1.5186,-1.19063 -0.64268,-0.65484 -1.05769,-1.19062 -0.92225,-1.19062 0.13543,0 -0.0204,-0.18674 -0.34622,-0.41498 -0.32585,-0.22824 -0.53162,-0.51342 -0.45726,-0.63373 0.0744,-0.12032 -0.0503,-0.28993 -0.27693,-0.37691 -0.22667,-0.087 -0.34573,-0.26557 -0.26458,-0.39687 0.0811,-0.1313 -0.0153,-0.30122 -0.21432,-0.37759 -0.49096,-0.1884 -2.05519,-4.00544 -1.85511,-4.52685 0.0915,-0.23847 0.0224,-0.41682 -0.16162,-0.41682 -0.21089,0 -0.26443,-0.22766 -0.15556,-0.66146 0.0957,-0.38144 0.0519,-0.66146 -0.10361,-0.66146 -0.15042,0 -0.26962,-0.64332 -0.26962,-1.45521 0,-0.89508 0.11372,-1.4552 0.29544,-1.4552 0.16982,0 0.2337,-0.23613 0.15022,-0.55534 -0.11735,-0.44874 -0.0471,-0.52968 0.36602,-0.42165 0.28118,0.0735 0.51124,0.0119 0.51124,-0.13698 0,-0.14887 0.26169,-0.20223 0.58154,-0.11859 0.31985,0.0836 0.73594,0.0239 0.92463,-0.13266 0.1887,-0.15661 0.58173,-0.22233 0.8734,-0.14606 0.29168,0.0763 0.59726,0.0304 0.67909,-0.10203 0.0818,-0.1324 0.43913,-0.16784 0.79401,-0.0788 0.42271,0.10609 0.64524,0.0494 0.64524,-0.1644 0,-0.22149 0.25503,-0.27533 0.79375,-0.16759 0.48048,0.0961 0.79375,0.0486 0.79375,-0.12024 0,-0.17482 0.30872,-0.21118 0.82685,-0.0974 0.57487,0.12626 0.77169,0.0924 0.64585,-0.11127 -0.20106,-0.32532 0.19952,-0.36927 1.11955,-0.12283 0.57836,0.15492 0.60758,0.27995 0.60187,2.57607 -0.007,2.90053 0.11235,4.49737 0.36767,4.91047 0.1041,0.16844 0.12293,0.47914 0.0418,0.69046 -0.0811,0.21131 -0.0454,0.3842 0.0794,0.3842 0.12476,0 0.29961,0.38696 0.38855,0.8599 0.089,0.47294 0.51387,1.60403 0.94426,2.51354 0.43039,0.9095 0.69829,1.65727 0.59532,1.66169 -0.10296,0.004 0.0237,0.13081 0.28139,0.28085 0.25772,0.15003 0.41109,0.36582 0.34083,0.47951 -0.0703,0.11369 0.40348,0.60475 1.05276,1.09125 0.64929,0.48649 1.18053,0.96277 1.18053,1.05839 0,0.16859 2.6384,0.13036 3.43958,-0.0498 0.37984,-0.0854 2.56001,-2.17294 2.66632,-2.55298 0.1799,-0.64317 0.90971,-1.90272 1.10247,-1.90272 0.12716,0 0.15761,-0.11907 0.0677,-0.26459 -0.0899,-0.14552 -0.0304,-0.26458 0.13229,-0.26458 0.1627,0 0.22223,-0.11906 0.1323,-0.26458 -0.0899,-0.14553 -0.0247,-0.26459 0.14498,-0.26459 0.16968,0 0.23997,-0.17859 0.15621,-0.39687 -0.0838,-0.21828 -0.0407,-0.39688 0.0957,-0.39688 0.13639,0 0.18406,-0.16655 0.10595,-0.37011 -0.0781,-0.20356 -0.02,-0.4455 0.12904,-0.53764 0.14909,-0.0921 0.204,-0.34231 0.12202,-0.55593 -0.082,-0.21362 -0.021,-0.3884 0.13555,-0.3884 0.15652,0 0.21547,-0.18011 0.13099,-0.40025 -0.0845,-0.22013 -0.0222,-0.55851 0.1383,-0.75194 0.16054,-0.19344 0.21869,-0.42491 0.12921,-0.51439 -0.0895,-0.0895 -0.072,-0.37618 0.0389,-0.63711 0.11089,-0.26094 0.17601,-0.86139 0.14471,-1.33433 -0.0313,-0.47294 0.0556,-0.8599 0.19314,-0.8599 0.13753,0 0.26515,-0.65484 0.28361,-1.45521 0.0196,-0.84884 -0.0806,-1.4552 -0.2405,-1.4552 -0.15073,0 -0.25976,-0.44649 -0.24229,-0.99219 0.0175,-0.5457 -0.053,-1.26711 -0.15652,-1.60313 -0.14989,-0.48637 -0.0733,-0.64103 0.37583,-0.75847 0.31026,-0.0811 0.56411,-0.2662 0.56411,-0.41127 0,-0.14506 0.35428,-0.21176 0.7873,-0.1482 0.43301,0.0635 0.82041,0.0162 0.86089,-0.10527 0.0405,-0.12145 0.62642,-0.26437 1.30207,-0.31761 0.67565,-0.0532 1.34693,-0.17002 1.49173,-0.25951 0.1448,-0.0895 0.72264,-0.20942 1.28408,-0.26651 0.56145,-0.0571 1.22347,-0.18763 1.47116,-0.2901 0.24769,-0.10247 0.58033,-0.10597 0.73919,-0.008 0.15887,0.0982 0.46071,0.0359 0.67076,-0.13844 0.21006,-0.17433 0.55821,-0.24931 0.77369,-0.16663 0.21547,0.0827 0.46855,0.0261 0.5624,-0.12574 0.0938,-0.15184 0.39519,-0.21735 0.66966,-0.14557 0.27448,0.0718 0.5646,0.0244 0.64471,-0.1052 0.0801,-0.12963 0.40766,-0.22836 0.72787,-0.2194 0.32021,0.009 1.05845,-0.10641 1.64053,-0.25638 0.58209,-0.14996 1.32623,-0.20574 1.65365,-0.12395 0.34875,0.0871 0.59531,0.0273 0.59531,-0.14454 0,-0.1613 0.12709,-0.29327 0.28242,-0.29327 0.15787,0 0.21146,0.22354 0.12153,0.5069 -0.0885,0.27879 -0.0468,0.57742 0.0927,0.6636 0.35288,0.21809 0.19631,7.90304 -0.16345,8.02296 -0.15234,0.0508 -0.21972,0.31131 -0.14973,0.57895 0.07,0.26764 0.003,0.5634 -0.14882,0.65724 -0.15184,0.0939 -0.20901,0.34541 -0.12704,0.55903 0.082,0.21362 0.047,0.38849 -0.0777,0.38859 -0.12471,1e-4 -0.24488,0.31331 -0.26705,0.69602 -0.0222,0.38271 -0.14123,0.76958 -0.26458,0.85971 -0.12335,0.0901 -0.26495,0.402 -0.31466,0.69304 -0.0497,0.29104 -0.19928,0.5691 -0.33238,0.61791 -0.1331,0.0488 -0.17469,0.19764 -0.0924,0.33073 0.0823,0.13309 0.0164,0.24199 -0.14626,0.24199 -0.16269,0 -0.22491,0.11471 -0.13825,0.25493 0.0866,0.14021 -0.075,0.48748 -0.35921,0.7717 -0.28423,0.28422 -0.44732,0.58622 -0.36243,0.67111 0.0849,0.0849 0.008,0.15434 -0.16996,0.15434 -0.17836,0 -0.25019,0.1199 -0.15962,0.26645 0.0906,0.14655 -0.0215,0.33788 -0.24897,0.42518 -0.2275,0.0873 -0.41364,0.32833 -0.41364,0.5356 0,0.20728 -0.17859,0.44541 -0.39688,0.52917 -0.21828,0.0838 -0.39687,0.29286 -0.39687,0.46466 0,0.17181 -0.61228,0.90321 -1.36062,1.62534 -0.74835,0.72214 -1.27106,1.13438 -1.16159,0.9161 0.10947,-0.21828 -0.0819,-0.0732 -0.42532,0.32238 -0.74093,0.85356 -3.6448,2.63302 -3.9694,2.43241 -0.12475,-0.0771 -0.22682,-0.0157 -0.22682,0.13646 0,0.30427 -1.67575,1.0764 -2.51354,1.15815 -0.29104,0.0284 -0.59474,0.13934 -0.67488,0.24653 -0.0801,0.10719 -0.5564,0.24799 -1.05834,0.31288 -0.50194,0.0649 -0.97215,0.14461 -1.04491,0.17717 -0.87002,0.38927 -8.20208,0.58396 -8.20208,0.21779 z M 11.76009,162.7573 c 0.0127,-0.30823 0.07539,-0.37092 0.159853,-0.15985 0.07643,0.19099 0.06703,0.41919 -0.02089,0.50711 -0.08792,0.0879 -0.150453,-0.0683 -0.138965,-0.34726 z M 196.70384,97.669801 c 0.0127,-0.308224 0.0754,-0.370919 0.15985,-0.159852 0.0764,0.190996 0.067,0.419199 -0.0209,0.507118 -0.0879,0.08792 -0.15045,-0.06835 -0.13896,-0.347266 z m 0.26458,-3.175 c 0.0127,-0.308224 0.0754,-0.370919 0.15985,-0.159852 0.0764,0.190996 0.067,0.419199 -0.0209,0.507118 -0.0879,0.08792 -0.15046,-0.06835 -0.13897,-0.347266 z M 16.258007,90.526052 c 0.0127,-0.308225 0.07539,-0.37092 0.159852,-0.159853 0.07643,0.190996 0.06703,0.419199 -0.02089,0.507118 -0.08792,0.08792 -0.150452,-0.06835 -0.138964,-0.347265 z m 180.995883,-0.63941 c 0,-0.363802 0.0601,-0.51263 0.13345,-0.330729 0.0734,0.181901 0.0734,0.479557 0,0.661458 -0.0734,0.181901 -0.13345,0.03307 -0.13345,-0.330729 z M 16.03392,84.859559 c 0,-0.509323 0.05445,-0.717682 0.121,-0.463021 0.06655,0.254661 0.06655,0.67138 0,0.926042 -0.06655,0.254661 -0.121,0.0463 -0.121,-0.463021 z m 112.33692,0.08384 c 0.191,-0.07643 0.4192,-0.06703 0.50712,0.02089 0.0879,0.08792 -0.0684,0.150452 -0.34727,0.138964 -0.30822,-0.0127 -0.37092,-0.07539 -0.15985,-0.159852 z m -11.37708,-1.058334 c 0.19099,-0.07643 0.4192,-0.06703 0.50712,0.02089 0.0879,0.08792 -0.0683,0.150453 -0.34727,0.138965 -0.30822,-0.0127 -0.37092,-0.07539 -0.15985,-0.159853 z M 99.38243,83.618841 c 0.254662,-0.06655 0.67138,-0.06655 0.92604,0 0.25466,0.06655 0.0463,0.121 -0.463019,0.121 -0.509323,0 -0.717682,-0.05445 -0.463021,-0.121 z m 9.40924,0.0016 c 0.191,-0.07643 0.4192,-0.06703 0.50712,0.02089 0.0879,0.08792 -0.0683,0.150453 -0.34726,0.138964 -0.30823,-0.0127 -0.37092,-0.07539 -0.15986,-0.159852 z m 1.17409,-0.0016 c 0.25466,-0.06655 0.67138,-0.06655 0.92604,0 0.25467,0.06655 0.0463,0.121 -0.46302,0.121 -0.50932,0 -0.71768,-0.05445 -0.46302,-0.121 z m 33.53594,-0.71126 c 0,-0.05494 0.20836,-0.263302 0.46302,-0.463021 0.41965,-0.329108 0.429,-0.319749 0.0999,0.0999 -0.34565,0.440729 -0.56292,0.580887 -0.56292,0.363126 z m 54.0778,-4.794897 c 4.6e-4,-1.891771 0.0426,-2.63096 0.0936,-1.642642 0.0511,0.988317 0.0507,2.53613 -8.4e-4,3.439583 -0.0515,0.903453 -0.0933,0.09483 -0.0928,-1.796941 z M 16.014312,70.836643 c 0,-0.363802 0.06005,-0.51263 0.133452,-0.330729 0.0734,0.181901 0.0734,0.479557 0,0.661458 -0.0734,0.181901 -0.133452,0.03307 -0.133452,-0.330729 z m 0.243695,-4.91684 c 0.0127,-0.308225 0.07539,-0.370919 0.159852,-0.159853 0.07643,0.190997 0.06703,0.4192 -0.02089,0.507118 -0.08792,0.08792 -0.150452,-0.06835 -0.138964,-0.347265 z M 196.96842,63.009386 c 0.0127,-0.308224 0.0754,-0.370919 0.15985,-0.159852 0.0764,0.190996 0.067,0.419199 -0.0209,0.507118 -0.0879,0.08792 -0.15046,-0.06835 -0.13897,-0.347266 z M 169.96003,50.892999 c 0,-0.05494 0.20836,-0.263301 0.46302,-0.463021 0.41965,-0.329107 0.42901,-0.319749 0.0999,0.0999 -0.34564,0.440729 -0.56292,0.580887 -0.56292,0.363126 z m -127.157425,-1.553751 -0.504028,-0.595312 0.595312,0.504028 c 0.327422,0.277215 0.595313,0.545106 0.595313,0.595312 0,0.211734 -0.212935,0.05542 -0.686597,-0.504028 z m -3.831345,-3.836458 -0.641433,-0.727604 0.727604,0.641433 c 0.400182,0.352788 0.727604,0.68021 0.727604,0.727604 0,0.207506 -0.214259,0.03862 -0.813775,-0.641433 z"
         id="path3" /><path
         style="fill:#232223"
         d="m 101.89597,251.88949 c 0.32742,-0.0631 0.8632,-0.0631 1.19063,0 0.32742,0.0631 0.0595,0.11466 -0.59532,0.11466 -0.65484,0 -0.92273,-0.0516 -0.59531,-0.11466 z m 12.17083,0 c 0.32743,-0.0631 0.86321,-0.0631 1.19063,0 0.32742,0.0631 0.0595,0.11466 -0.59531,0.11466 -0.65485,0 -0.92274,-0.0516 -0.59532,-0.11466 z m -17.975125,-0.2586 c 0.190996,-0.0764 0.419199,-0.067 0.507118,0.0209 0.08792,0.0879 -0.06835,0.15045 -0.347266,0.13897 -0.308224,-0.0127 -0.370919,-0.0754 -0.159852,-0.15986 z m 24.341665,0 c 0.191,-0.0764 0.4192,-0.067 0.50712,0.0209 0.0879,0.0879 -0.0683,0.15045 -0.34727,0.13897 -0.30822,-0.0127 -0.37092,-0.0754 -0.15985,-0.15986 z m -27.252082,-0.26458 c 0.190996,-0.0764 0.4192,-0.067 0.507118,0.0209 0.08792,0.0879 -0.06835,0.15045 -0.347265,0.13896 -0.308225,-0.0127 -0.370919,-0.0754 -0.159853,-0.15985 z m 30.812462,-0.003 c 0.25743,-0.0671 0.61461,-0.0627 0.79375,0.01 0.17913,0.0725 -0.0315,0.12736 -0.46806,0.12197 -0.43656,-0.005 -0.58313,-0.0647 -0.32569,-0.13177 z m -33.987462,-0.26197 c 0.190996,-0.0764 0.4192,-0.067 0.507118,0.0209 0.08792,0.0879 -0.06835,0.15046 -0.347265,0.13897 -0.308225,-0.0127 -0.370919,-0.0754 -0.159853,-0.15985 z m 8.913151,-7.39064 c -13.005703,-0.76189 -26.7194,-3.0646 -36.971143,-6.20796 -3.197492,-0.98041 -10.508931,-3.65839 -10.984585,-4.02336 -0.181901,-0.13957 -0.330729,-0.49231 -0.330729,-0.78387 0,-0.86841 1.749375,-5.03189 4.363605,-10.38531 2.795547,-5.72471 3.803779,-7.27604 4.728803,-7.27604 0.342333,0 1.861751,0.45976 3.376486,1.02168 10.605623,3.93437 27.399943,7.21484 37.289964,7.28393 4.08525,0.0285 4.12719,0.0229 5.23585,-0.70943 2.08683,-1.37837 2.74407,-3.58451 1.61808,-5.43136 -0.91878,-1.50698 -2.21708,-1.87507 -8.131913,-2.30549 -2.876339,-0.20931 -7.668641,-0.73003 -10.649562,-1.15715 -22.627304,-3.24213 -43.30531,-12.75459 -55.447703,-25.50748 -7.857775,-8.25285 -11.409314,-15.31831 -12.673475,-25.21272 -0.387599,-3.03368 -0.380805,-3.42397 0.128967,-7.40833 1.300448,-10.16426 3.034728,-17.72665 6.360444,-27.73495 2.182431,-6.56774 2.23955,-7.25456 1.062475,-12.7758 -3.073882,-14.41848 -4.48042,-30.507947 -3.973438,-45.452361 0.330507,-9.742393 1.006243,-15.332184 2.379458,-19.683239 1.395122,-4.420467 2.241161,-4.132153 8.642252,2.945115 10.009497,11.066847 14.518891,16.781039 19.294003,24.44888 5.690926,9.138448 6.940873,11.630936 8.183552,16.318612 0.25807,0.973499 0.725303,1.885156 1.271771,2.481456 1.310716,1.430238 2.620507,1.454423 6.658385,0.122945 14.153131,-4.666952 44.519594,-5.670217 64.551784,-2.1327 6.97916,1.232461 12.2852,2.724811 15.53548,4.369432 0.78091,0.39514 1.70676,0.631468 2.47385,0.631468 1.03565,0 1.36224,-0.136356 2.1046,-0.878716 1.04518,-1.045187 1.39895,-2.464 0.90918,-3.646402 -0.18502,-0.446672 -0.97255,-1.292431 -1.75006,-1.879462 -1.27968,-0.966164 -1.41367,-1.164058 -1.41367,-2.087834 0,-2.160926 1.98125,-6.110102 6.4249,-12.806543 2.09639,-3.159208 5.98712,-8.445164 7.88723,-10.715625 0.54802,-0.654843 2.57461,-3.095624 4.50352,-5.423958 5.8379,-7.046765 12.77391,-14.513818 13.77748,-14.832339 1.40477,-0.445856 1.92695,0.580053 2.70142,5.30734 2.69029,16.421259 1.44842,45.970084 -2.65763,63.235411 -1.21232,5.09759 -1.15845,5.83606 0.82032,11.24479 3.51173,9.5989 6.12993,21.06983 7.2888,31.93391 0.25169,2.35956 0.2201,3.11354 -0.25217,6.01922 -0.6155,3.7869 -1.2119,6.09084 -2.26394,8.74583 -3.80751,9.60883 -11.18211,18.00422 -22.0994,25.1584 -7.92234,5.19155 -16.25188,9.25719 -25.36205,12.37916 -3.18862,1.09272 -4.31847,1.78626 -4.90138,3.00864 -0.53025,1.11195 -0.53079,2.00114 -0.002,3.11576 0.5468,1.15228 1.78205,1.71704 3.72371,1.70247 1.63697,-0.0123 1.8177,-0.0663 6.17514,-1.84536 1.97769,-0.80745 3.28218,-1.16945 4.538,-1.2593 l 1.76246,-0.1261 0.84229,1.15816 c 2.09144,2.87579 6.46767,12.82441 7.00172,15.91724 l 0.1728,1.00073 -1.46407,0.64748 c -0.80524,0.35612 -3.2819,1.29292 -5.5037,2.08178 -9.86487,3.50259 -20.03811,5.71748 -31.82087,6.92795 -3.98787,0.40968 -20.84759,0.73258 -25.135421,0.4814 z m 20.763071,-46.41954 c 2.71992,-0.75373 4.33946,-1.46562 6.40755,-2.81652 2.55684,-1.67015 3.43854,-3.36699 2.46888,-4.75137 -0.87667,-1.25163 -2.07472,-1.01987 -5.69471,1.10166 -2.28718,1.34042 -4.46724,1.98423 -6.71896,1.98423 -2.04972,0 -4.39878,-0.66902 -5.4428,-1.55014 -0.96979,-0.81847 -1.58608,-2.40979 -1.35953,-3.51043 l 0.15983,-0.77646 2.91042,-0.0628 c 2.40999,-0.052 3.09887,-0.16274 4.00647,-0.64423 2.52094,-1.3374 3.9139,-4.09178 3.91608,-7.74348 10e-4,-1.6685 -0.1346,-2.28625 -0.85183,-3.8808 -1.18108,-2.62581 -1.13713,-3.00919 0.47804,-4.16957 1.56186,-1.12209 1.97614,-1.87763 1.73484,-3.16387 -0.3658,-1.94989 -2.225,-3.01297 -6.30511,-3.60526 -1.71252,-0.24859 -2.40204,-0.22529 -4.20312,0.14207 -2.22509,0.45383 -2.62048,0.43589 -5.52225,-0.25054 -4.24828,-1.00496 -10.472497,0.0786 -12.717223,2.21399 -0.914475,0.86992 -1.041106,1.137 -1.041106,2.19576 0,1.0159 0.183983,1.44864 1.170436,2.75295 0.64374,0.85116 1.407472,1.69105 1.697183,1.86642 0.28971,0.17537 1.269696,1.1874 2.177746,2.24896 1.943961,2.27259 2.838049,2.83004 4.563174,2.84505 1.96457,0.0171 2.29771,0.30368 2.29771,1.97655 0,1.9435 -1.39506,7.30873 -2.33294,8.97217 -0.42344,0.75103 -1.13841,1.58195 -1.588829,1.84651 -1.767088,1.03792 -5.720207,0.80662 -8.240245,-0.48214 -1.270383,-0.64968 -1.839683,-1.1195 -2.93587,-2.42284 -0.372951,-0.44343 -0.999932,-1.01712 -1.393292,-1.27486 -0.632737,-0.41458 -0.854311,-0.42967 -1.921717,-0.13081 -2.179971,0.61035 -2.52073,2.27019 -0.938253,4.57025 0.978998,1.42292 2.191828,2.36493 4.337522,3.36897 2.539324,1.18823 5.477967,1.84354 8.267023,1.84354 2.871721,0 4.443491,-0.41936 6.372731,-1.7003 1.62411,-1.07835 1.95981,-1.03738 4.10049,0.50055 3.91048,2.8094 8.00154,3.65403 12.14166,2.50675 z m -7.06585,-14.19035 c 0.25743,-0.0671 0.61462,-0.0627 0.79375,0.01 0.17913,0.0725 -0.0315,0.12737 -0.46805,0.12197 -0.43657,-0.005 -0.58313,-0.0647 -0.3257,-0.13177 z m -0.79878,-15.60945 c 0.25466,-0.0666 0.67138,-0.0666 0.92604,0 0.25466,0.0666 0.0463,0.121 -0.46302,0.121 -0.50933,0 -0.71768,-0.0545 -0.46302,-0.121 z m -51.381556,26.23896 c 2.539047,-0.80305 5.985668,-1.73629 7.659157,-2.07386 1.67349,-0.33758 3.434824,-0.81736 3.914075,-1.06618 1.703344,-0.88435 1.736603,-2.66525 0.07086,-3.79395 -1.576807,-1.06842 -2.316421,-1.03591 -6.567622,0.28873 -2.14478,0.6683 -5.492864,1.63616 -7.440186,2.1508 -1.947323,0.51465 -3.936539,1.12362 -4.420481,1.35326 -1.06417,0.50498 -2.225391,1.62229 -2.225391,2.14123 0,1.16572 1.779756,2.42755 3.453342,2.44837 0.516891,0.006 3.017203,-0.64535 5.55625,-1.4484 z m 99.741426,1.02451 c 0.96587,-0.64312 1.31565,-1.16759 1.31565,-1.97272 0,-1.10571 -1.27237,-1.97524 -4.18147,-2.85759 -1.41098,-0.42796 -4.41088,-1.34178 -6.66645,-2.03072 -7.34623,-2.2438 -6.85706,-2.16082 -8.35688,-1.41759 -0.8503,0.42136 -1.38225,0.8834 -1.53686,1.33486 -0.57692,1.68467 0.59398,2.90419 3.27246,3.40834 2.21317,0.41658 5.00151,1.18558 9.5317,2.62877 4.44494,1.41602 5.61603,1.57637 6.62185,0.90665 z M 145.22149,182.5134 c 1.60073,-0.14107 4.87495,-0.39187 7.27604,-0.55733 9.09421,-0.62669 9.36308,-0.68788 10.66106,-2.42638 0.66368,-0.88893 0.4193,-1.62436 -0.81947,-2.46613 -1.196,-0.8127 -1.46663,-0.81619 -10.63534,-0.13716 -10.60882,0.78568 -12.11463,1.06734 -13.08081,2.44676 -0.57694,0.8237 -0.51479,1.65159 0.18238,2.42939 0.62781,0.70044 2.08701,1.22105 2.97656,1.06197 0.29104,-0.052 1.83885,-0.21005 3.43958,-0.35112 z m -69.958618,-0.51493 c 0.609456,-0.75308 0.65525,-2.08654 0.09893,-2.88079 -0.223609,-0.31924 -0.861195,-0.70287 -1.416858,-0.85249 -1.336767,-0.35996 -7.407825,-0.948 -15.272626,-1.47931 -5.860519,-0.39591 -6.44737,-0.39641 -7.202052,-0.006 -2.237363,1.15699 -1.411465,3.88869 1.329601,4.39773 0.627205,0.11648 3.26089,0.35268 5.852634,0.5249 2.591743,0.17222 6.163618,0.46895 7.937499,0.65942 1.773882,0.19046 4.337219,0.32718 5.696306,0.30381 2.251288,-0.0387 2.516026,-0.0981 2.976562,-0.66712 z m -3.805256,-14.07706 c 8.931019,-2.04231 15.037143,-7.54136 17.374282,-15.64692 0.348118,-1.20733 0.714842,-2.80043 0.814943,-3.54023 0.236283,-1.74625 0.767641,-2.51637 2.712741,-3.93172 1.795597,-1.30656 2.987952,-3.26734 2.987952,-4.91358 0,-1.91975 -0.754468,-3.69633 -2.144863,-5.05062 -1.575294,-1.53438 -2.691385,-1.84577 -4.191368,-1.16937 -1.320178,0.59532 -1.716319,1.35946 -1.489361,2.87292 0.154122,1.02776 0.09633,1.26622 -0.424503,1.75144 -0.944975,0.88038 -1.703171,0.93097 -4.834757,0.32261 -2.814455,-0.54675 -8.09106,-1.42124 -25.676605,-4.25537 -12.086084,-1.94782 -12.087029,-1.94794 -14.117171,-1.83323 -2.104323,0.11891 -2.989482,0.59902 -3.874496,2.10154 -0.473696,0.80421 -0.523345,1.31441 -0.473634,4.86713 0.172624,12.33687 4.320702,20.67008 12.534654,25.1813 6.57385,3.61044 14.0807,4.78114 20.802186,3.2441 z m -21.916747,-9.70613 c -0.329107,-0.41964 -0.319749,-0.429 0.09989,-0.0999 0.254662,0.19972 0.463021,0.40808 0.463021,0.46302 0,0.21776 -0.217272,0.0776 -0.562916,-0.36313 z m 35.034423,-10.78177 c 0.002,-0.7276 0.05337,-0.99385 0.114186,-0.59167 0.06082,0.40218 0.05919,0.99749 -0.0036,1.32292 -0.0628,0.32542 -0.11256,-0.004 -0.110574,-0.73125 z m -25.169314,-3.30729 c 0,-0.3638 0.06005,-0.51263 0.133452,-0.33073 0.0734,0.1819 0.0734,0.47956 0,0.66146 -0.0734,0.1819 -0.133452,0.0331 -0.133452,-0.33073 z m 92.739082,24.07281 c 3.00833,-0.48826 6.28051,-1.58357 9.54326,-3.19447 2.65009,-1.30841 3.62205,-1.96011 5.35577,-3.59107 4.66149,-4.3852 7.20134,-10.13012 7.9744,-18.0374 0.61035,-6.24305 -0.0598,-9.11482 -2.40254,-10.29622 -1.6387,-0.82635 -3.27055,-0.77226 -9.6303,0.31922 -2.93081,0.503 -10.68655,1.81661 -17.23499,2.91913 -21.40615,3.60403 -21.9861,3.73264 -23.45495,5.2015 -1.26352,1.26351 -1.37778,2.53315 -0.36261,4.02908 0.47303,0.69706 0.76437,1.68938 1.04293,3.55241 0.93087,6.22565 3.88319,11.18528 8.884,14.92438 2.00508,1.49919 6.96441,3.54477 10.07145,4.15418 1.65055,0.32374 8.26079,0.3362 10.21358,0.0193 z m 0.37336,-21.31673 c 0.0127,-0.30823 0.0754,-0.37092 0.15985,-0.15985 0.0764,0.19099 0.067,0.4192 -0.0209,0.50711 -0.0879,0.0879 -0.15046,-0.0683 -0.13897,-0.34726 z m -109.57841,91.50173 -0.641433,-0.7276 0.727604,0.64143 c 0.400182,0.35279 0.727604,0.68021 0.727604,0.7276 0,0.20751 -0.214259,0.0386 -0.813775,-0.64143 z m -1.780478,-4.16719 c 0.0054,-0.43656 0.06469,-0.58312 0.131774,-0.32569 0.06708,0.25743 0.06267,0.61462 -0.0098,0.79375 -0.07248,0.17913 -0.127362,-0.0315 -0.12197,-0.46806 z M 183.58607,197.57205 c 0.26339,-0.29104 0.53843,-0.52916 0.61119,-0.52916 0.0728,0 -0.0832,0.23812 -0.3466,0.52916 -0.26339,0.29104 -0.53842,0.52917 -0.61118,0.52917 -0.0728,0 0.0832,-0.23813 0.34659,-0.52917 z M 27.878785,195.32309 c -1.084122,-1.0914 -1.9116,-1.98437 -1.838839,-1.98437 0.07276,0 1.019301,0.89297 2.103423,1.98437 1.084122,1.09141 1.9116,1.98438 1.838839,1.98438 -0.07276,0 -1.0193,-0.89297 -2.103423,-1.98438 z M 201.75181,162.64705 c 0,-0.3638 0.06,-0.51263 0.13345,-0.33072 0.0734,0.1819 0.0734,0.47955 0,0.66145 -0.0734,0.1819 -0.13345,0.0331 -0.13345,-0.33073 z m -189.99172,-0.6835 c 0.0127,-0.30823 0.07539,-0.37092 0.159853,-0.15985 0.07643,0.19099 0.06703,0.41919 -0.02089,0.50711 -0.08792,0.0879 -0.150453,-0.0684 -0.138965,-0.34726 z m 189.99172,-4.34358 c 0,-0.3638 0.06,-0.51263 0.13345,-0.33073 0.0734,0.1819 0.0734,0.47956 0,0.66146 -0.0734,0.1819 -0.13345,0.0331 -0.13345,-0.33073 z M 11.780979,157.0908 c 0,-0.3638 0.06005,-0.51263 0.133452,-0.33072 0.0734,0.1819 0.0734,0.47955 0,0.66145 -0.0734,0.18191 -0.133452,0.0331 -0.133452,-0.33073 z m 189.685361,-2.53559 c 0.0127,-0.30822 0.0754,-0.37091 0.15985,-0.15985 0.0764,0.191 0.067,0.4192 -0.0209,0.50712 -0.0879,0.0879 -0.15045,-0.0684 -0.13896,-0.34727 z m -184.15,-52.65208 c 0.0127,-0.30822 0.07539,-0.37091 0.159853,-0.15985 0.07643,0.191 0.06703,0.4192 -0.02089,0.50712 -0.08792,0.0879 -0.150453,-0.0683 -0.138965,-0.34727 z m 179.12291,-2.381246 c 0.0127,-0.308224 0.0754,-0.370919 0.15986,-0.159852 0.0764,0.190996 0.067,0.419199 -0.0209,0.507118 -0.0879,0.08792 -0.15045,-0.06835 -0.13897,-0.347266 z M 16.787174,96.876051 c 0.0127,-0.308224 0.07539,-0.370919 0.159852,-0.159852 0.07643,0.190996 0.06703,0.419199 -0.02089,0.507118 -0.08792,0.08792 -0.150453,-0.06835 -0.138964,-0.347266 z m -0.243695,-3.020659 c 0,-0.363802 0.06005,-0.512631 0.133452,-0.330729 0.0734,0.181901 0.0734,0.479557 0,0.661458 -0.0734,0.181901 -0.133452,0.03307 -0.133452,-0.330729 z M 196.98931,93.590808 c 0,-0.363802 0.0601,-0.51263 0.13345,-0.330729 0.0734,0.181901 0.0734,0.479557 0,0.661458 -0.0734,0.181902 -0.13345,0.03307 -0.13345,-0.330729 z M 16.288699,89.489767 c 0.0054,-0.436563 0.06469,-0.583125 0.131774,-0.325694 0.06708,0.257431 0.06267,0.614619 -0.0098,0.79375 -0.07248,0.179132 -0.127362,-0.03149 -0.12197,-0.468056 z M 197.27884,88.431434 c 0.003,-0.582084 0.0571,-0.789055 0.12041,-0.459936 0.0633,0.329118 0.0609,0.805368 -0.005,1.058333 -0.0662,0.252965 -0.11801,-0.01631 -0.11507,-0.598397 z m -59.91217,-1.900533 c 0.191,-0.07643 0.4192,-0.06703 0.50712,0.02089 0.0879,0.08792 -0.0684,0.150452 -0.34726,0.138964 -0.30823,-0.0127 -0.37092,-0.07539 -0.15986,-0.159854 z M 92.106389,84.155164 c 0.181901,-0.0734 0.479557,-0.0734 0.661458,0 0.181901,0.0734 0.03307,0.133452 -0.330729,0.133452 -0.363802,0 -0.51263,-0.06005 -0.330729,-0.133452 z m 27.533201,-0.0055 c 0.191,-0.07643 0.4192,-0.06703 0.50712,0.02089 0.0879,0.08792 -0.0683,0.150452 -0.34727,0.138964 -0.30822,-0.0127 -0.37092,-0.07539 -0.15985,-0.159852 z M 16.04821,82.875184 c 0.002,-0.727604 0.05337,-0.993858 0.114186,-0.591675 0.06081,0.402184 0.05919,0.997496 -0.0036,1.322917 -0.0628,0.325421 -0.11256,-0.0036 -0.110574,-0.731242 z m 79.249715,1.009884 c 0.190996,-0.07643 0.419199,-0.06703 0.507118,0.02089 0.08792,0.08792 -0.06835,0.150453 -0.347266,0.138965 -0.308224,-0.0127 -0.370919,-0.07539 -0.159852,-0.159853 z m 20.224085,-0.0016 c 0.25466,-0.06655 0.67138,-0.06655 0.92604,0 0.25467,0.06655 0.0463,0.121 -0.46302,0.121 -0.50932,0 -0.71768,-0.05445 -0.46302,-0.121 z m -12.5677,-0.278654 c 1.05502,-0.05022 2.78143,-0.05022 3.83645,0 1.05503,0.05022 0.19183,0.09131 -1.91823,0.09131 -2.11005,0 -2.97325,-0.04109 -1.91822,-0.09131 z M 70.178369,82.544455 c -0.329107,-0.419644 -0.319749,-0.429003 0.09989,-0.0999 0.254661,0.199719 0.463021,0.408079 0.463021,0.463021 0,0.217761 -0.217272,0.0776 -0.562916,-0.363126 z m 77.027501,-3.870207 c 0,-0.05494 0.20836,-0.263302 0.46302,-0.463021 0.41964,-0.329108 0.429,-0.319749 0.0999,0.0999 -0.34564,0.440729 -0.56291,0.580887 -0.56291,0.363126 z M 16.044599,72.424143 c 0,-0.654844 0.0516,-0.922735 0.114662,-0.595313 0.06306,0.327422 0.06306,0.863203 0,1.190625 -0.06306,0.327422 -0.114662,0.05953 -0.114662,-0.595312 z M 197.2637,68.323101 c 0.005,-0.436562 0.0647,-0.583124 0.13177,-0.325693 0.0671,0.257431 0.0627,0.614618 -0.01,0.79375 -0.0725,0.179131 -0.12737,-0.03149 -0.12197,-0.468057 z M 16.258007,66.713553 c 0.0127,-0.308225 0.07539,-0.370919 0.159852,-0.159853 0.07643,0.190996 0.06703,0.4192 -0.02089,0.507118 -0.08792,0.08792 -0.150452,-0.06835 -0.138964,-0.347265 z M 196.96842,63.803136 c 0.0127,-0.308224 0.0754,-0.370919 0.15985,-0.159852 0.0764,0.190996 0.067,0.419199 -0.0209,0.507118 -0.0879,0.08792 -0.15046,-0.06835 -0.13897,-0.347266 z M 16.543479,63.163727 c 0,-0.363802 0.06005,-0.512631 0.133452,-0.33073 0.0734,0.181901 0.0734,0.479558 0,0.661459 -0.0734,0.181901 -0.133452,0.03307 -0.133452,-0.330729 z M 196.70384,60.89272 c 0.0127,-0.308225 0.0754,-0.370919 0.15985,-0.159853 0.0764,0.190996 0.067,0.4192 -0.0209,0.507118 -0.0879,0.08792 -0.15045,-0.06835 -0.13896,-0.347265 z m -0.26459,-2.38125 c 0.0127,-0.308225 0.0754,-0.370919 0.15986,-0.159853 0.0764,0.190997 0.067,0.4192 -0.0209,0.507119 -0.0879,0.08792 -0.15045,-0.06835 -0.13897,-0.347266 z m -30.18338,-3.385138 c 0,-0.05494 0.20836,-0.263301 0.46302,-0.463021 0.41964,-0.329107 0.429,-0.319749 0.0999,0.09989 -0.34564,0.440729 -0.56291,0.580887 -0.56291,0.363126 z M 46.895036,53.969456 c -0.329107,-0.419644 -0.319749,-0.429002 0.0999,-0.0999 0.254661,0.19972 0.463021,0.408079 0.463021,0.463021 0,0.217761 -0.217272,0.0776 -0.562916,-0.363126 z M 168.24024,52.844977 c 0.26339,-0.291042 0.53842,-0.529166 0.61118,-0.529166 0.0728,0 -0.0832,0.238124 -0.3466,0.529166 -0.26338,0.291042 -0.53842,0.529167 -0.61118,0.529167 -0.0728,0 0.0832,-0.238125 0.3466,-0.529167 z m -123.056385,-0.859896 -0.504028,-0.595312 0.595312,0.504028 c 0.327422,0.277215 0.595313,0.545106 0.595313,0.595312 0,0.211734 -0.212935,0.05542 -0.686597,-0.504028 z M 170.75378,50.099249 c 0,-0.05494 0.20836,-0.263301 0.46302,-0.463021 0.41965,-0.329107 0.42901,-0.319749 0.0999,0.09989 -0.34564,0.440729 -0.56292,0.580887 -0.56292,0.363126 z m -129.788066,-2.612084 -1.31297,-1.389063 1.389062,1.312971 c 1.290742,1.220035 1.5104,1.465154 1.31297,1.465154 -0.04185,0 -0.666928,-0.625078 -1.389062,-1.389062 z M 176.17774,44.642894 c 0.26339,-0.291041 0.53842,-0.529166 0.61118,-0.529166 0.0728,0 -0.0832,0.238125 -0.3466,0.529166 -0.26338,0.291042 -0.53842,0.529167 -0.61118,0.529167 -0.0728,0 0.0832,-0.238125 0.3466,-0.529167 z"
         id="path2" /><path
         style="fill:#000000"
         d="m 99.448576,251.81753 c -18.114106,-0.91736 -36.340265,-4.46341 -49.162239,-9.56494 -8.59259,-3.41877 -10.217605,-5.8317 -8.032747,-11.92756 1.71564,-4.78672 3.071218,-7.75205 8.586696,-18.78342 0.05105,-0.10211 -0.659323,-0.56399 -1.578611,-1.0264 -8.160002,-4.10458 -15.675527,-9.61264 -22.04595,-16.15729 -6.650993,-6.83289 -10.920533,-13.7305 -13.329355,-21.53412 -3.198572,-10.36208 -2.700716,-19.53839 1.966087,-36.2382 0.772657,-2.7649 2.086226,-6.99162 2.919044,-9.39271 0.886287,-2.55525 1.56176,-4.98651 1.628867,-5.86286 0.07794,-1.01783 -0.150175,-2.8212 -0.71244,-5.63216 -3.94218,-19.708351 -4.727519,-43.770321 -1.98232,-60.736226 1.612158,-9.963478 3.5281,-13.736799 7.587042,-14.942175 2.954777,-0.877475 6.103943,-0.300479 9.016489,1.652017 4.170942,2.796092 11.813692,10.911923 19.616798,20.831062 9.616472,12.224253 16.406838,20.420569 18.281022,22.066125 1.323544,1.162086 3.161086,1.924219 4.619742,1.916067 0.654844,-0.0037 2.262188,-0.243913 3.571875,-0.533896 3.250179,-0.719636 7.048619,-1.249552 12.7,-1.771764 3.882138,-0.358726 6.669951,-0.413182 15.081254,-0.294592 12.1174,0.170841 18.08681,0.66197 26.00174,2.139277 3.27547,0.611361 3.60115,0.629108 4.83283,0.263338 1.8763,-0.5572 3.60523,-2.080031 7.49312,-6.59988 3.528,-4.101468 4.73709,-5.588338 13.53825,-16.648638 10.18931,-12.804761 16.64727,-19.525953 21.29135,-22.159215 3.94081,-2.234502 9.08439,-1.24626 11.23362,2.158329 1.31572,2.084245 2.72065,7.043185 3.56558,12.585403 0.7865,5.158858 1.11985,10.169658 1.25855,18.917707 0.26539,16.738235 -0.48794,25.729851 -3.526,42.085771 l -0.9615,5.1764 1.6193,4.61318 c 5.25503,14.97097 7.97923,28.94621 7.20195,36.94631 -0.61776,6.35822 -1.86114,10.86334 -4.51857,16.37211 -4.30527,8.92469 -11.48053,17.04957 -21.22078,24.02927 -3.12,2.23574 -9.53636,6.14248 -11.91321,7.25361 -0.83509,0.39039 -1.48458,0.76933 -1.44332,0.84209 0.0413,0.0728 1.45592,2.93026 3.14369,6.35 4.73309,9.59012 6.5067,14.4705 6.1641,16.96151 -0.46852,3.40657 -3.22904,5.35761 -12.29925,8.69265 -9.9535,3.65983 -23.4459,6.56644 -34.39583,7.40976 -1.96453,0.1513 -4.16719,0.33068 -4.89479,0.39863 -2.71913,0.25392 -16.8223,0.35204 -20.902084,0.14543 z m 24.606254,-8.58784 c 11.78276,-1.21047 21.956,-3.42536 31.82087,-6.92795 2.2218,-0.78886 4.69846,-1.72566 5.5037,-2.08178 l 1.46407,-0.64748 -0.1728,-1.00073 c -0.53405,-3.09283 -4.91028,-13.04145 -7.00172,-15.91724 l -0.84229,-1.15816 -1.76246,0.1261 c -1.25582,0.0899 -2.56031,0.45185 -4.538,1.2593 -4.35744,1.77906 -4.53817,1.83307 -6.17514,1.84536 -1.94166,0.0146 -3.17691,-0.55019 -3.72371,-1.70247 -0.52892,-1.11462 -0.52838,-2.00381 0.002,-3.11576 0.58291,-1.22238 1.71276,-1.91592 4.90138,-3.00864 9.11017,-3.12197 17.43971,-7.18761 25.36205,-12.37916 10.91729,-7.15418 18.29189,-15.54957 22.0994,-25.1584 1.05204,-2.65499 1.64844,-4.95893 2.26394,-8.74583 0.47227,-2.90568 0.50386,-3.65966 0.25217,-6.01922 -1.15887,-10.86408 -3.77707,-22.33501 -7.2888,-31.93391 -1.97877,-5.40873 -2.03264,-6.1472 -0.82032,-11.24479 4.10605,-17.265327 5.34792,-46.814152 2.65763,-63.235411 -0.77447,-4.727287 -1.29665,-5.753196 -2.70142,-5.30734 -1.00357,0.318521 -7.93958,7.785574 -13.77748,14.832339 -1.92891,2.328334 -3.9555,4.769115 -4.50352,5.423958 -1.90011,2.270461 -5.79084,7.556417 -7.88723,10.715625 -4.44365,6.696441 -6.4249,10.645617 -6.4249,12.806543 0,0.923776 0.13399,1.12167 1.41367,2.087834 0.77751,0.587031 1.56504,1.43279 1.75006,1.879462 0.48977,1.182402 0.136,2.601215 -0.90918,3.646402 -0.74236,0.74236 -1.06895,0.878716 -2.1046,0.878716 -0.76709,0 -1.69294,-0.236328 -2.47385,-0.631468 -8.4177,-4.259307 -27.29895,-6.825836 -47.28548,-6.427518 -13.957589,0.278165 -25.350429,1.733725 -32.801784,4.190786 -4.037878,1.331478 -5.347669,1.307293 -6.658385,-0.122945 C 63.146233,95.559613 62.679,94.647956 62.42093,93.674457 61.178251,88.986781 59.928304,86.494293 54.237378,77.355845 49.462266,69.688004 44.952872,63.973812 34.943375,52.906965 c -6.401091,-7.077268 -7.24713,-7.365582 -8.642252,-2.945115 -1.373215,4.351055 -2.048951,9.940846 -2.379458,19.683239 -0.506982,14.944414 0.899556,31.033881 3.973438,45.452361 1.177075,5.52124 1.119956,6.20806 -1.062475,12.7758 -3.325716,10.0083 -5.059996,17.57069 -6.360444,27.73495 -0.509772,3.98436 -0.516566,4.37465 -0.128967,7.40833 1.264161,9.89441 4.8157,16.95987 12.673475,25.21272 12.142393,12.75289 32.820399,22.26535 55.447703,25.50748 2.980921,0.42712 7.773223,0.94784 10.649562,1.15715 5.914833,0.43042 7.213133,0.79851 8.131913,2.30549 1.12599,1.84685 0.46875,4.05299 -1.61808,5.43136 -1.10866,0.73228 -1.1506,0.73797 -5.23585,0.70943 -9.890021,-0.0691 -26.684341,-3.34956 -37.289964,-7.28393 -1.514735,-0.56192 -3.034153,-1.02168 -3.376486,-1.02168 -0.925024,0 -1.933256,1.55133 -4.728803,7.27604 -2.61423,5.35342 -4.363605,9.5169 -4.363605,10.38531 0,0.29156 0.148828,0.6443 0.330729,0.78387 0.475654,0.36497 7.787093,3.04295 10.984585,4.02336 8.865762,2.71839 21.138354,4.96062 31.94406,5.83624 5.594554,0.45334 6.189444,0.46778 16.271874,0.39496 6.59637,-0.0476 10.99907,-0.20759 13.89063,-0.50464 z m -11.64167,-46.02086 c -2.174,-0.70914 -3.18646,-1.21285 -4.87234,-2.42403 -2.14068,-1.53793 -2.47638,-1.5789 -4.10049,-0.50055 -1.92924,1.28094 -3.50101,1.7003 -6.372731,1.7003 -2.789056,0 -5.727699,-0.65531 -8.267023,-1.84354 -2.145694,-1.00404 -3.358524,-1.94605 -4.337522,-3.36897 -1.582477,-2.30006 -1.241718,-3.9599 0.938253,-4.57025 1.067406,-0.29886 1.28898,-0.28377 1.921717,0.13081 0.39336,0.25774 1.020341,0.83143 1.393292,1.27486 1.096187,1.30334 1.665487,1.77316 2.93587,2.42284 2.520038,1.28876 6.473157,1.52006 8.240245,0.48214 0.450419,-0.26456 1.165389,-1.09548 1.588829,-1.84651 0.93788,-1.66344 2.33294,-7.02867 2.33294,-8.97217 0,-1.67287 -0.33314,-1.95945 -2.29771,-1.97655 -1.725125,-0.015 -2.619213,-0.57246 -4.563174,-2.84505 -0.90805,-1.06156 -1.888036,-2.07359 -2.177746,-2.24896 -0.289711,-0.17537 -1.053443,-1.01526 -1.697183,-1.86642 -0.986453,-1.30431 -1.170436,-1.73705 -1.170436,-2.75295 0,-1.05876 0.126631,-1.32584 1.041106,-2.19576 2.244726,-2.13535 8.468943,-3.21895 12.717223,-2.21399 2.90177,0.68643 3.29716,0.70437 5.52225,0.25054 1.80108,-0.36736 2.4906,-0.39066 4.20312,-0.14207 4.08011,0.59229 5.93931,1.65537 6.30511,3.60526 0.2413,1.28624 -0.17298,2.04178 -1.73484,3.16387 -1.61517,1.16038 -1.65912,1.54376 -0.47804,4.16957 0.71723,1.59455 0.85283,2.2123 0.85183,3.8808 -0.002,3.6517 -1.39514,6.40608 -3.91608,7.74348 -0.9076,0.48149 -1.59648,0.59226 -4.00647,0.64423 l -2.91042,0.0628 -0.15983,0.77646 c -0.22655,1.10064 0.38974,2.69196 1.35953,3.51043 1.04402,0.88112 3.39308,1.55014 5.4428,1.55014 2.25172,0 4.43178,-0.64381 6.71896,-1.98423 3.61999,-2.12153 4.81804,-2.35329 5.69471,-1.10166 0.96966,1.38438 0.088,3.08122 -2.46888,4.75137 -2.06809,1.3509 -3.68763,2.06279 -6.40755,2.81652 -2.56883,0.71186 -4.91525,0.68516 -7.26932,-0.0827 z m 2.76178,-14.67559 c 1.37301,-1.0046 1.73614,-1.80611 1.73614,-3.83215 0,-1.74746 -0.10357,-2.10438 -1.29913,-4.4774 l -1.29912,-2.57857 0.33319,-1.48886 c 0.31299,-1.39857 0.29933,-1.52273 -0.22517,-2.04723 -0.44114,-0.44114 -0.87714,-0.55652 -2.07678,-0.5496 -3.291,0.019 -6.14862,1.86785 -6.14862,3.97809 0,2.1334 1.87646,4.3387 3.69173,4.3387 0.56512,0 1.21582,0.0723 1.44601,0.1606 0.65122,0.2499 0.50388,1.53746 -0.37524,3.27898 -0.43656,0.86483 -0.79375,1.85977 -0.79375,2.21099 0,0.64106 0.72093,1.29752 1.73082,1.57605 0.8546,0.23571 2.59155,-0.0659 3.27992,-0.5696 z m -62.218715,12.11457 c -1.640387,-0.86619 -1.935674,-1.88911 -0.856775,-2.96801 0.972974,-0.97298 2.002696,-1.39423 5.973124,-2.44355 1.947322,-0.51464 5.295406,-1.4825 7.440186,-2.1508 4.251201,-1.32464 4.990815,-1.35715 6.567622,-0.28873 1.665747,1.1287 1.632488,2.9096 -0.07086,3.79395 -0.479251,0.24882 -2.240585,0.7286 -3.914075,1.06618 -1.673489,0.33757 -5.12011,1.27081 -7.659157,2.07386 -2.539047,0.80305 -5.039359,1.45483 -5.55625,1.4484 -0.51689,-0.006 -1.382609,-0.24552 -1.923819,-0.5313 z m 100.599645,-0.79924 c -4.53019,-1.44319 -7.31853,-2.21219 -9.5317,-2.62877 -2.67848,-0.50415 -3.84938,-1.72367 -3.27246,-3.40834 0.15461,-0.45146 0.68656,-0.9135 1.53686,-1.33486 1.49982,-0.74323 1.01065,-0.82621 8.35688,1.41759 2.25557,0.68894 5.25547,1.60276 6.66645,2.03072 2.9091,0.88235 4.18147,1.75188 4.18147,2.85759 0,1.27309 -1.39216,2.41937 -2.90315,2.39042 -0.51332,-0.01 -2.77878,-0.60579 -5.03435,-1.32435 z M 140.3267,182.71294 c -1.7764,-0.4723 -2.59215,-2.07138 -1.70373,-3.33978 0.96618,-1.37942 2.47199,-1.66108 13.08081,-2.44676 9.16871,-0.67903 9.43934,-0.67554 10.63534,0.13716 1.23877,0.84177 1.48315,1.5772 0.81947,2.46613 -1.29798,1.7385 -1.56685,1.79969 -10.66106,2.42638 -4.83406,0.33312 -9.90008,0.76261 -10.71562,0.90845 -0.29104,0.0521 -0.94589,-0.0162 -1.45521,-0.15158 z m -73.736696,-0.35116 c -1.773881,-0.19047 -5.345756,-0.4872 -7.937499,-0.65942 -2.591744,-0.17222 -5.225429,-0.40842 -5.852634,-0.5249 -2.741066,-0.50904 -3.566964,-3.24074 -1.329601,-4.39773 0.754682,-0.39026 1.341533,-0.38976 7.202052,0.006 7.864801,0.53131 13.935859,1.11935 15.272626,1.47931 0.555663,0.14962 1.193249,0.53325 1.416858,0.85249 0.556316,0.79425 0.510522,2.12771 -0.09893,2.88079 -0.460536,0.56907 -0.725274,0.6284 -2.976562,0.66712 -1.359087,0.0234 -3.922424,-0.11335 -5.696306,-0.30381 z M 63.068368,168.4546 c -6.325977,-0.49031 -12.77742,-3.15943 -16.866276,-6.97797 -5.355066,-5.00104 -7.942192,-12.03784 -8.081316,-21.98062 -0.04971,-3.55272 -6.2e-5,-4.06292 0.473634,-4.86713 0.885014,-1.50252 1.770173,-1.98263 3.874496,-2.10154 2.030142,-0.11471 2.031087,-0.11459 14.117171,1.83323 17.585545,2.83413 22.86215,3.70862 25.676605,4.25537 3.131586,0.60836 3.889782,0.55777 4.834757,-0.32261 0.52083,-0.48522 0.578625,-0.72368 0.424503,-1.75144 -0.226958,-1.51346 0.169183,-2.2776 1.489361,-2.87292 1.499983,-0.6764 2.616074,-0.36501 4.191368,1.16937 1.390395,1.35429 2.144863,3.13087 2.144863,5.05062 0,1.64624 -1.192355,3.60702 -2.987952,4.91358 -1.9451,1.41535 -2.476458,2.18547 -2.712741,3.93172 -1.106459,8.17728 -6.414066,14.98702 -13.944543,17.89108 -4.170162,1.60819 -8.115724,2.17946 -12.63393,1.82926 z m 7.011458,-4.73167 c 1.164167,-0.27935 2.670444,-0.74549 3.347284,-1.03586 4.931365,-2.11563 9.001385,-6.56119 10.694881,-11.68168 0.567488,-1.71587 0.682563,-5.35644 0.185051,-5.85438 -0.237061,-0.23727 -9.354929,-2.06255 -10.390757,-2.0801 -0.07276,-0.001 -0.141606,1.33703 -0.152989,2.97393 -0.035,5.03257 -1.524613,9.61755 -4.029982,12.40412 -3.492772,3.8848 -7.487722,1.06551 -9.61028,-6.78211 -0.647427,-2.3937 -0.813595,-7.93771 -0.291845,-9.73711 0.26758,-0.92282 0.243961,-1.02654 -0.286103,-1.25639 -0.78284,-0.33946 -15.889247,-3.14416 -16.055884,-2.98099 -0.07276,0.0712 -0.132276,1.9945 -0.132257,4.27389 4.1e-5,4.91429 0.401746,6.90448 2.118207,10.49435 1.885288,3.94296 5.087204,7.14979 9.306399,9.32068 3.69022,1.89872 5.717142,2.383 10.1389,2.42243 2.168411,0.0193 3.650916,-0.11881 5.159375,-0.48078 z m 71.851654,4.45684 c -3.10704,-0.60941 -8.06637,-2.65499 -10.07145,-4.15418 -5.00081,-3.7391 -7.95313,-8.69873 -8.884,-14.92438 -0.27856,-1.86303 -0.5699,-2.85535 -1.04293,-3.55241 -1.01517,-1.49593 -0.90091,-2.76557 0.36261,-4.02908 1.46885,-1.46886 2.0488,-1.59747 23.45495,-5.2015 6.54844,-1.10252 14.30418,-2.41613 17.23499,-2.91913 6.35975,-1.09148 7.9916,-1.14557 9.6303,-0.31922 2.34278,1.1814 3.01289,4.05317 2.40254,10.29622 -0.77306,7.90728 -3.31291,13.6522 -7.9744,18.0374 -1.73372,1.63096 -2.70568,2.28266 -5.35577,3.59107 -3.26275,1.6109 -6.53493,2.70621 -9.54326,3.19447 -1.95279,0.31694 -8.56303,0.30448 -10.21358,-0.0193 z m 10.68222,-4.37453 c 6.39404,-1.22007 12.13531,-5.55216 15.03491,-11.34464 1.4822,-2.96095 2.10649,-5.58382 2.24653,-9.43849 0.0723,-1.98971 0.05,-4.05149 -0.0494,-4.58173 -0.16425,-0.87548 -0.24632,-0.95115 -0.89317,-0.82355 -0.39176,0.0773 -4.3437,0.81304 -8.78209,1.63502 -4.43839,0.82199 -8.09286,1.51407 -8.12106,1.53797 -0.0282,0.0239 0.0747,0.57601 0.2286,1.22691 0.39068,1.65202 0.37641,5.30872 -0.0299,7.66574 -0.70805,4.10725 -2.64163,8.14693 -4.6228,9.65804 -4.47993,3.41701 -9.37033,-3.70487 -9.40602,-13.69797 -0.009,-2.54226 -0.019,-2.5825 -0.60454,-2.4491 -0.32742,0.0746 -2.60699,0.49113 -5.06571,0.92561 -2.45871,0.43449 -4.53695,0.85654 -4.61831,0.9379 -0.37014,0.37013 -0.3287,3.59304 0.0665,5.1723 1.62497,6.49356 6.80433,11.63401 13.46672,13.36555 3.27894,0.85219 7.38084,0.92961 11.14979,0.21044 z"
         id="path1" /></g></g></svg>
